<mxfile host="app.diagrams.net" modified="2023-07-17T07:52:29.525Z" agent="Mozilla/5.0 (Macintosh; Intel Mac OS X 10_15_7) AppleWebKit/537.36 (KHTML, like Gecko) Chrome/113.0.0.0 Safari/537.36" etag="SLEvs59jj6bLUbA3ZrtE" version="21.6.2" type="github">
  <diagram name="Page-1" id="c7488fd3-1785-93aa-aadb-54a6760d102a">
    <mxGraphModel dx="1366" dy="758" grid="1" gridSize="10" guides="1" tooltips="1" connect="1" arrows="1" fold="1" page="1" pageScale="1" pageWidth="1100" pageHeight="850" background="none" math="0" shadow="0">
      <root>
        <mxCell id="0" />
        <mxCell id="1" parent="0" />
        <mxCell id="pInQwndEqvkR__QQOe_d-1" value="Pool" style="swimlane;html=1;childLayout=stackLayout;startSize=20;rounded=0;shadow=0;labelBackgroundColor=none;strokeWidth=1;fontFamily=Verdana;fontSize=8;align=center;sketch=1;hachureGap=4;jiggle=2;curveFitting=1;fontSource=https%3A%2F%2Ffonts.googleapis.com%2Fcss%3Ffamily%3DArchitects%2BDaughter;" vertex="1" parent="1">
          <mxGeometry x="10" y="90" width="900" height="750" as="geometry" />
        </mxCell>
        <mxCell id="pInQwndEqvkR__QQOe_d-2" value="SASS Portal" style="swimlane;html=1;startSize=20;sketch=1;hachureGap=4;jiggle=2;curveFitting=1;fontFamily=Architects Daughter;fontSource=https%3A%2F%2Ffonts.googleapis.com%2Fcss%3Ffamily%3DArchitects%2BDaughter;fontSize=20;" vertex="1" parent="pInQwndEqvkR__QQOe_d-1">
          <mxGeometry y="20" width="230" height="730" as="geometry" />
        </mxCell>
        <mxCell id="pInQwndEqvkR__QQOe_d-3" value="&lt;font style=&quot;font-size: 20px;&quot; face=&quot;Architects Daughter&quot;&gt;BusinessConfig&lt;/font&gt;" style="rounded=1;whiteSpace=wrap;html=1;shadow=0;labelBackgroundColor=none;strokeWidth=1;fontFamily=Verdana;fontSize=8;align=center;sketch=1;hachureGap=4;jiggle=2;curveFitting=1;fontSource=https%3A%2F%2Ffonts.googleapis.com%2Fcss%3Ffamily%3DArchitects%2BDaughter;" vertex="1" parent="pInQwndEqvkR__QQOe_d-2">
          <mxGeometry x="20" y="385" width="170" height="60" as="geometry" />
        </mxCell>
        <mxCell id="pInQwndEqvkR__QQOe_d-46" value="&lt;font style=&quot;font-size: 20px;&quot; face=&quot;Architects Daughter&quot;&gt;GeneratorConfig&lt;/font&gt;" style="rounded=1;whiteSpace=wrap;html=1;shadow=0;labelBackgroundColor=none;strokeWidth=1;fontFamily=Verdana;fontSize=8;align=center;sketch=1;hachureGap=4;jiggle=2;curveFitting=1;fontSource=https%3A%2F%2Ffonts.googleapis.com%2Fcss%3Ffamily%3DArchitects%2BDaughter;" vertex="1" parent="pInQwndEqvkR__QQOe_d-2">
          <mxGeometry x="20" y="140" width="170" height="60" as="geometry" />
        </mxCell>
        <mxCell id="pInQwndEqvkR__QQOe_d-65" style="edgeStyle=orthogonalEdgeStyle;rounded=0;sketch=1;hachureGap=4;jiggle=2;curveFitting=1;orthogonalLoop=1;jettySize=auto;html=1;fontFamily=Architects Daughter;fontSource=https%3A%2F%2Ffonts.googleapis.com%2Fcss%3Ffamily%3DArchitects%2BDaughter;fontSize=16;entryX=0;entryY=0.5;entryDx=0;entryDy=0;" edge="1" parent="pInQwndEqvkR__QQOe_d-1" source="pInQwndEqvkR__QQOe_d-3" target="pInQwndEqvkR__QQOe_d-63">
          <mxGeometry relative="1" as="geometry">
            <mxPoint x="220" y="435" as="targetPoint" />
          </mxGeometry>
        </mxCell>
        <mxCell id="pInQwndEqvkR__QQOe_d-21" value="DB" style="swimlane;html=1;startSize=20;sketch=1;hachureGap=4;jiggle=2;curveFitting=1;fontFamily=Architects Daughter;fontSource=https%3A%2F%2Ffonts.googleapis.com%2Fcss%3Ffamily%3DArchitects%2BDaughter;fontSize=20;" vertex="1" parent="pInQwndEqvkR__QQOe_d-1">
          <mxGeometry x="230" y="20" width="160" height="730" as="geometry" />
        </mxCell>
        <mxCell id="pInQwndEqvkR__QQOe_d-63" value="Mongo" style="rounded=0;whiteSpace=wrap;html=1;sketch=1;hachureGap=4;jiggle=2;curveFitting=1;fontFamily=Architects Daughter;fontSource=https%3A%2F%2Ffonts.googleapis.com%2Fcss%3Ffamily%3DArchitects%2BDaughter;fontSize=20;" vertex="1" parent="pInQwndEqvkR__QQOe_d-21">
          <mxGeometry x="20" y="385" width="120" height="60" as="geometry" />
        </mxCell>
        <mxCell id="pInQwndEqvkR__QQOe_d-66" value="Input" style="text;html=1;align=center;verticalAlign=middle;resizable=0;points=[];autosize=1;strokeColor=none;fillColor=none;fontSize=20;fontFamily=Architects Daughter;" vertex="1" parent="pInQwndEqvkR__QQOe_d-21">
          <mxGeometry x="40" y="123" width="70" height="40" as="geometry" />
        </mxCell>
        <mxCell id="pInQwndEqvkR__QQOe_d-23" value="Server" style="swimlane;html=1;startSize=20;sketch=1;hachureGap=4;jiggle=2;curveFitting=1;fontFamily=Architects Daughter;fontSource=https%3A%2F%2Ffonts.googleapis.com%2Fcss%3Ffamily%3DArchitects%2BDaughter;fontSize=20;" vertex="1" parent="pInQwndEqvkR__QQOe_d-1">
          <mxGeometry x="390" y="20" width="190" height="730" as="geometry" />
        </mxCell>
        <mxCell id="pInQwndEqvkR__QQOe_d-22" value="&lt;font style=&quot;font-size: 20px;&quot; data-font-src=&quot;https://fonts.googleapis.com/css?family=Architects+Daughter&quot; face=&quot;Architects Daughter&quot;&gt;CLI&lt;/font&gt;" style="rounded=1;whiteSpace=wrap;html=1;shadow=0;labelBackgroundColor=none;strokeWidth=1;fontFamily=Verdana;fontSize=8;align=center;sketch=1;hachureGap=4;jiggle=2;curveFitting=1;fontSource=https%3A%2F%2Ffonts.googleapis.com%2Fcss%3Ffamily%3DArchitects%2BDaughter;" vertex="1" parent="pInQwndEqvkR__QQOe_d-23">
          <mxGeometry x="10" y="140" width="70" height="60" as="geometry" />
        </mxCell>
        <mxCell id="pInQwndEqvkR__QQOe_d-58" value="GitClone" style="text;html=1;strokeColor=none;fillColor=none;align=center;verticalAlign=middle;whiteSpace=wrap;rounded=0;fontSize=20;fontFamily=Architects Daughter;" vertex="1" parent="pInQwndEqvkR__QQOe_d-23">
          <mxGeometry x="110" y="140" width="60" height="30" as="geometry" />
        </mxCell>
        <mxCell id="pInQwndEqvkR__QQOe_d-60" value="Build &amp;amp; Upload" style="text;html=1;strokeColor=none;fillColor=none;align=center;verticalAlign=middle;whiteSpace=wrap;rounded=0;fontSize=20;fontFamily=Architects Daughter;" vertex="1" parent="pInQwndEqvkR__QQOe_d-23">
          <mxGeometry x="50" y="285" width="140" height="30" as="geometry" />
        </mxCell>
        <mxCell id="pInQwndEqvkR__QQOe_d-28" value="GitLab" style="swimlane;html=1;startSize=20;sketch=1;hachureGap=4;jiggle=2;curveFitting=1;fontFamily=Architects Daughter;fontSource=https%3A%2F%2Ffonts.googleapis.com%2Fcss%3Ffamily%3DArchitects%2BDaughter;fontSize=20;" vertex="1" parent="pInQwndEqvkR__QQOe_d-1">
          <mxGeometry x="580" y="20" width="160" height="730" as="geometry" />
        </mxCell>
        <mxCell id="pInQwndEqvkR__QQOe_d-48" value="Templete" style="rounded=1;whiteSpace=wrap;html=1;sketch=1;hachureGap=4;jiggle=2;curveFitting=1;fontFamily=Architects Daughter;fontSource=https%3A%2F%2Ffonts.googleapis.com%2Fcss%3Ffamily%3DArchitects%2BDaughter;fontSize=20;" vertex="1" parent="pInQwndEqvkR__QQOe_d-28">
          <mxGeometry x="40" y="140" width="100" height="60" as="geometry" />
        </mxCell>
        <mxCell id="pInQwndEqvkR__QQOe_d-57" value="Http" style="text;html=1;align=center;verticalAlign=middle;resizable=0;points=[];autosize=1;strokeColor=none;fillColor=none;fontSize=20;fontFamily=Architects Daughter;" vertex="1" parent="pInQwndEqvkR__QQOe_d-28">
          <mxGeometry x="10" y="380" width="60" height="40" as="geometry" />
        </mxCell>
        <mxCell id="pInQwndEqvkR__QQOe_d-37" value="Tencent" style="swimlane;html=1;startSize=20;sketch=1;hachureGap=4;jiggle=2;curveFitting=1;fontFamily=Architects Daughter;fontSource=https%3A%2F%2Ffonts.googleapis.com%2Fcss%3Ffamily%3DArchitects%2BDaughter;fontSize=20;" vertex="1" parent="pInQwndEqvkR__QQOe_d-1">
          <mxGeometry x="740" y="20" width="160" height="730" as="geometry" />
        </mxCell>
        <mxCell id="pInQwndEqvkR__QQOe_d-52" value="App" style="rounded=1;whiteSpace=wrap;html=1;sketch=1;hachureGap=4;jiggle=2;curveFitting=1;fontFamily=Architects Daughter;fontSource=https%3A%2F%2Ffonts.googleapis.com%2Fcss%3Ffamily%3DArchitects%2BDaughter;fontSize=20;" vertex="1" parent="pInQwndEqvkR__QQOe_d-37">
          <mxGeometry x="20" y="255" width="120" height="60" as="geometry" />
        </mxCell>
        <mxCell id="pInQwndEqvkR__QQOe_d-47" value="" style="endArrow=classic;html=1;rounded=0;sketch=1;hachureGap=4;jiggle=2;curveFitting=1;fontFamily=Architects Daughter;fontSource=https%3A%2F%2Ffonts.googleapis.com%2Fcss%3Ffamily%3DArchitects%2BDaughter;fontSize=16;exitX=1;exitY=0.5;exitDx=0;exitDy=0;entryX=-0.025;entryY=0.558;entryDx=0;entryDy=0;entryPerimeter=0;" edge="1" parent="pInQwndEqvkR__QQOe_d-1" source="pInQwndEqvkR__QQOe_d-46" target="pInQwndEqvkR__QQOe_d-22">
          <mxGeometry width="50" height="50" relative="1" as="geometry">
            <mxPoint x="280" y="220" as="sourcePoint" />
            <mxPoint x="330" y="170" as="targetPoint" />
          </mxGeometry>
        </mxCell>
        <mxCell id="pInQwndEqvkR__QQOe_d-59" value="" style="endArrow=classic;startArrow=classic;html=1;rounded=0;sketch=1;hachureGap=4;jiggle=2;curveFitting=1;fontFamily=Architects Daughter;fontSource=https%3A%2F%2Ffonts.googleapis.com%2Fcss%3Ffamily%3DArchitects%2BDaughter;fontSize=16;entryX=0;entryY=0.5;entryDx=0;entryDy=0;" edge="1" parent="pInQwndEqvkR__QQOe_d-1" source="pInQwndEqvkR__QQOe_d-22" target="pInQwndEqvkR__QQOe_d-48">
          <mxGeometry width="50" height="50" relative="1" as="geometry">
            <mxPoint x="60" y="200" as="sourcePoint" />
            <mxPoint x="470.71067811865476" y="190" as="targetPoint" />
          </mxGeometry>
        </mxCell>
        <mxCell id="pInQwndEqvkR__QQOe_d-68" value="" style="endArrow=classic;html=1;rounded=0;sketch=1;hachureGap=4;jiggle=2;curveFitting=1;fontFamily=Architects Daughter;fontSource=https%3A%2F%2Ffonts.googleapis.com%2Fcss%3Ffamily%3DArchitects%2BDaughter;fontSize=16;exitX=0.5;exitY=1;exitDx=0;exitDy=0;entryX=0;entryY=0.5;entryDx=0;entryDy=0;" edge="1" parent="pInQwndEqvkR__QQOe_d-1" source="pInQwndEqvkR__QQOe_d-22" target="pInQwndEqvkR__QQOe_d-52">
          <mxGeometry width="50" height="50" relative="1" as="geometry">
            <mxPoint x="480" y="370" as="sourcePoint" />
            <mxPoint x="530" y="320" as="targetPoint" />
            <Array as="points">
              <mxPoint x="435" y="305" />
            </Array>
          </mxGeometry>
        </mxCell>
        <mxCell id="pInQwndEqvkR__QQOe_d-69" value="" style="endArrow=classic;html=1;rounded=0;sketch=1;hachureGap=4;jiggle=2;curveFitting=1;fontFamily=Architects Daughter;fontSource=https%3A%2F%2Ffonts.googleapis.com%2Fcss%3Ffamily%3DArchitects%2BDaughter;fontSize=16;exitX=0.5;exitY=1;exitDx=0;exitDy=0;entryX=1;entryY=0.5;entryDx=0;entryDy=0;" edge="1" parent="pInQwndEqvkR__QQOe_d-1" source="pInQwndEqvkR__QQOe_d-52" target="pInQwndEqvkR__QQOe_d-63">
          <mxGeometry width="50" height="50" relative="1" as="geometry">
            <mxPoint x="630" y="500" as="sourcePoint" />
            <mxPoint x="680" y="450" as="targetPoint" />
            <Array as="points">
              <mxPoint x="820" y="435" />
            </Array>
          </mxGeometry>
        </mxCell>
      </root>
    </mxGraphModel>
  </diagram>
</mxfile>
